<svg height="308" id="165640774763669413" width="560" version="1.1" 
		xmlns:dc="http://purl.org/dc/elements/1.1/"
		xmlns:cc="http://creativecommons.org/ns#"
		xmlns:rdf="http://www.w3.org/1999/02/22-rdf-syntax-ns#"
		xmlns:svg="http://www.w3.org/2000/svg"
		xmlns="http://www.w3.org/2000/svg"
		xmlns:sodipodi="http://sodipodi.sourceforge.net/DTD/sodipodi-0.dtd"
		xmlns:inkscape="http://www.inkscape.org/namespaces/inkscape"
		viewBox="0 0 560 308" style="width: 560px; height: 308px;transition: 0.3s;border-radius: 5px; position: absolute; top: 50%;font-size:48px; left: 50%; transform: translate(-50%, -50%) scale(0.5); z-index: 0; cursor: pointer;"><defs><style type="text/css">@import url("https://fonts.googleapis.com/css2?family=Piedra ");</style></defs><defs><style type="text/css">@import url("");</style></defs><style>.mytextnew165640774763669413{text-align:center;font-family: 'Piedra', cursive;}.mytextnew2165640774763669413{text-align:center;font-family: 'Piedra', cursive;}</style><g id="165640774763669413" featurekey="nameFeature-0" fill="#000"  transform="translate(143.25,114) scale(0.38095238095238)"> 
<g>	
		<polygon points="122.305,14.041 87.355,14.041 104.836,44.304 		"/>
		<polygon points="82.999,16.565 65.518,46.828 100.459,46.828 		"/>
		<polygon points="126.673,16.565 109.202,46.828 144.14,46.828 		"/>
		<polygon points="144.14,51.87 109.202,51.87 126.673,82.133 		"/>
		<polygon points="56.785,51.87 21.837,51.87 39.315,82.133 		"/>
		<polygon points="17.472,54.394 0,84.657 34.941,84.657 		"/>
		<polygon points="104.836,54.394 87.355,84.657 122.305,84.657 		"/>
		<polygon points="148.514,54.394 131.042,84.657 165.986,84.657 		"/>
		<polygon points="165.986,89.699 131.042,89.699 148.514,119.962 		"/>
		<polygon points="122.305,89.699 87.355,89.699 104.836,119.962 		"/>
		<polygon points="82.999,92.223 65.518,122.485 100.459,122.485 		"/>
		<polygon points="126.673,92.223 109.202,122.485 144.14,122.485 		"/>
		<polygon points="170.36,92.223 152.876,122.485 187.821,122.485 		"/>
		<polygon points="187.821,127.528 152.876,127.528 170.36,157.791 		"/>
		<polygon points="144.14,127.528 109.202,127.528 126.673,157.791 		"/>
		<polygon points="100.459,127.528 65.518,127.528 82.999,157.791 		"/>
		<polygon points="61.156,130.052 43.675,160.315 78.622,160.315 		"/>
		<polygon points="104.836,130.052 87.355,160.315 122.305,160.315 		"/>
		<polygon points="148.514,130.052 131.042,160.315 165.986,160.315 		"/>
		<polygon points="192.201,130.052 174.722,160.315 209.661,160.315 		"/>
		<polygon points="209.661,165.356 174.722,165.356 192.201,195.62 		"/>
		<polygon points="165.986,165.356 131.042,165.356 148.514,195.62 		"/>
		<polygon points="122.305,165.356 87.355,165.356 104.836,195.62 		"/>
		<polygon points="78.622,165.356 43.675,165.356 61.156,195.62 		"/>
	</g>
</g><g id="165640774763669413" featurekey="nameFeature-0"><text x="243.25" y="50%" dominant-baseline="middle" text-anchor="left" class="mytextnew165640774763669413" style="font-size:48px;fill:#000;">RRMODI</text></g></svg>